<svg id="Logo" xmlns="http://www.w3.org/2000/svg" xmlns:xlink="http://www.w3.org/1999/xlink" viewBox="0 0 106.08 64.8"><defs><style>.cls-1{fill:url(#radial-gradient);}.cls-2{fill:url(#radial-gradient-2);}.cls-3{fill:none;stroke:#fff;stroke-miterlimit:10;stroke-width:2.62px;}.cls-3,.cls-4{opacity:0.8;}.cls-4{fill:#fff;}</style><radialGradient id="radial-gradient" cx="316.58" cy="508.18" r="24.21" gradientUnits="userSpaceOnUse"><stop offset="0" stop-color="#69369c"/><stop offset="1" stop-color="#230641"/></radialGradient><radialGradient id="radial-gradient-2" cx="32.4" cy="32.4" r="32.4" xlink:href="#radial-gradient"/></defs><path class="cls-1" d="M316.42,478.18a3.66,3.66,0,0,0-3.34,3.73v32.54a3.66,3.66,0,0,0,3.34,3.73,3.51,3.51,0,0,0,3.66-3.5v-33A3.5,3.5,0,0,0,316.42,478.18Zm-13,0a3.66,3.66,0,0,0-3.34,3.73v52.54a3.66,3.66,0,0,0,3.34,3.73,3.5,3.5,0,0,0,3.66-3.5v-53A3.5,3.5,0,0,0,303.42,478.18Zm26,0a3.66,3.66,0,0,0-3.34,3.73v52.54a3.66,3.66,0,0,0,3.34,3.73,3.5,3.5,0,0,0,3.66-3.5v-53A3.5,3.5,0,0,0,329.42,478.18Z" transform="translate(-227 -473.7)"/><circle class="cls-2" cx="32.4" cy="32.4" r="32.4"/><path class="cls-3" d="M232,505.89a27.39,27.39,0,0,1,27.4-27.39" transform="translate(-227 -473.7)"/><circle class="cls-4" cx="32.4" cy="32.4" r="3.91"/></svg>