<svg id="Layer_1_copy" data-name="Layer 1 copy" xmlns="http://www.w3.org/2000/svg" xmlns:xlink="http://www.w3.org/1999/xlink" viewBox="0 0 226 160.8"><defs><style>.cls-1{fill:url(#radial-gradient);}</style><radialGradient id="radial-gradient" cx="432" cy="575.74" r="98.06" gradientUnits="userSpaceOnUse"><stop offset="0" stop-color="#69369c"/><stop offset="1" stop-color="#230641"/></radialGradient></defs><path class="cls-1" d="M416,520.32V631.17a3.5,3.5,0,1,1-7,0V520.32a3.5,3.5,0,0,1,7,0Zm48.5-3.5a3.5,3.5,0,0,0-3.5,3.5V631.17a3.5,3.5,0,1,0,7,0V520.32A3.5,3.5,0,0,0,464.5,516.82ZM437.87,495.4a3.66,3.66,0,0,0-2.87,3.67V652.41a3.68,3.68,0,0,0,2.87,3.68,3.55,3.55,0,0,0,4.13-3.57V499A3.54,3.54,0,0,0,437.87,495.4Zm-13,9a3.66,3.66,0,0,0-2.87,3.67V643.41a3.68,3.68,0,0,0,2.87,3.68,3.55,3.55,0,0,0,4.13-3.57V508A3.54,3.54,0,0,0,424.87,504.4Zm26,0a3.66,3.66,0,0,0-2.87,3.67V643.41a3.68,3.68,0,0,0,2.87,3.68,3.55,3.55,0,0,0,4.13-3.57V508A3.54,3.54,0,0,0,450.87,504.4ZM361.5,540.19a3.5,3.5,0,0,0-3.5,3.5V607.8a3.5,3.5,0,0,0,7,0V543.69A3.5,3.5,0,0,0,361.5,540.19Zm12.84,15.55a3.66,3.66,0,0,0-3.34,3.73V592a3.66,3.66,0,0,0,3.34,3.73,3.5,3.5,0,0,0,3.66-3.5v-33A3.51,3.51,0,0,0,374.34,555.74Zm25,0a3.66,3.66,0,0,0-3.34,3.73V592a3.66,3.66,0,0,0,3.34,3.73,3.5,3.5,0,0,0,3.66-3.5v-33A3.51,3.51,0,0,0,399.34,555.74Zm103,0a3.66,3.66,0,0,0-3.34,3.73V592a3.66,3.66,0,0,0,3.34,3.73,3.5,3.5,0,0,0,3.66-3.5v-33A3.51,3.51,0,0,0,502.34,555.74Zm26,0a3.66,3.66,0,0,0-3.34,3.73V592a3.66,3.66,0,0,0,3.34,3.73,3.5,3.5,0,0,0,3.66-3.5v-33A3.51,3.51,0,0,0,528.34,555.74Zm13,7.16a3.66,3.66,0,0,0-3.34,3.73v18.22a3.66,3.66,0,0,0,3.34,3.73,3.5,3.5,0,0,0,3.66-3.5V566.4A3.51,3.51,0,0,0,541.34,562.9Zm-155,5.15a3.65,3.65,0,0,0-3.34,3.72v7.94a3.65,3.65,0,0,0,3.34,3.72,3.5,3.5,0,0,0,3.66-3.49v-8.39A3.5,3.5,0,0,0,386.34,568.05Zm103-5.15a3.66,3.66,0,0,0-3.34,3.73v18.22a3.66,3.66,0,0,0,3.34,3.73,3.5,3.5,0,0,0,3.66-3.5V566.4A3.51,3.51,0,0,0,489.34,562.9Zm-12-22.71a3.65,3.65,0,0,0-3.34,3.72v63.66a3.65,3.65,0,0,0,3.34,3.72A3.5,3.5,0,0,0,481,607.8V543.69A3.5,3.5,0,0,0,477.34,540.19Zm38,5.55a3.66,3.66,0,0,0-3.34,3.73V602a3.65,3.65,0,0,0,3.34,3.72,3.5,3.5,0,0,0,3.66-3.5v-53A3.5,3.5,0,0,0,515.34,545.74Zm-180,10a3.66,3.66,0,0,0-3.34,3.73V592a3.66,3.66,0,0,0,3.34,3.73,3.5,3.5,0,0,0,3.66-3.5v-33A3.51,3.51,0,0,0,335.34,555.74Zm-13,7.16a3.66,3.66,0,0,0-3.34,3.73v18.22a3.66,3.66,0,0,0,3.34,3.73,3.5,3.5,0,0,0,3.66-3.5V566.4A3.51,3.51,0,0,0,322.34,562.9Zm26-17.16a3.66,3.66,0,0,0-3.34,3.73V602a3.65,3.65,0,0,0,3.34,3.72,3.5,3.5,0,0,0,3.66-3.5v-53A3.5,3.5,0,0,0,348.34,545.74Z" transform="translate(-319 -495.34)"/></svg>